<svg xmlns="http://www.w3.org/2000/svg" viewBox="0 0 85 85"><defs><style>.cls-1{fill:#212529;}</style></defs><title>instagram</title><g id="Capa_2" data-name="Capa 2"><g id="Graphic_Elements" data-name="Graphic Elements"><path class="cls-1" d="M42.5,7.66c11.35,0,12.69,0,17.17.25a23.4,23.4,0,0,1,7.9,1.46,13.15,13.15,0,0,1,4.88,3.18,13.15,13.15,0,0,1,3.18,4.88,23.4,23.4,0,0,1,1.46,7.9c.21,4.48.25,5.82.25,17.17s0,12.69-.25,17.17a23.4,23.4,0,0,1-1.46,7.9,14.11,14.11,0,0,1-8.06,8.06,23.4,23.4,0,0,1-7.9,1.46c-4.48.21-5.82.25-17.17.25s-12.69,0-17.17-.25a23.4,23.4,0,0,1-7.9-1.46,13.15,13.15,0,0,1-4.88-3.18,13.15,13.15,0,0,1-3.18-4.88,23.4,23.4,0,0,1-1.46-7.9c-.21-4.48-.25-5.82-.25-17.17s0-12.69.25-17.17a23.4,23.4,0,0,1,1.46-7.9,13.15,13.15,0,0,1,3.18-4.88,13.15,13.15,0,0,1,4.88-3.18,23.4,23.4,0,0,1,7.9-1.46c4.48-.21,5.82-.25,17.17-.25M42.5,0C31,0,29.51.05,25,.26a31,31,0,0,0-10.32,2A21.7,21.7,0,0,0,2.23,14.66,31,31,0,0,0,.26,25C.05,29.51,0,31,0,42.5S.05,55.49.26,60a31,31,0,0,0,2,10.32A21.7,21.7,0,0,0,14.66,82.77a31,31,0,0,0,10.32,2C29.51,85,31,85,42.5,85s13,0,17.52-.26a31,31,0,0,0,10.32-2A21.7,21.7,0,0,0,82.77,70.34a31,31,0,0,0,2-10.32C85,55.49,85,54,85,42.5s0-13-.26-17.52a31,31,0,0,0-2-10.32A21.7,21.7,0,0,0,70.34,2.23,31,31,0,0,0,60,.26C55.49.05,54,0,42.5,0Z"/><path class="cls-1" d="M42.5,20.68A21.82,21.82,0,1,0,64.32,42.5,21.82,21.82,0,0,0,42.5,20.68Zm0,36A14.17,14.17,0,1,1,56.67,42.5,14.18,14.18,0,0,1,42.5,56.67Z"/><circle class="cls-1" cx="65.19" cy="19.81" r="5.1"/></g></g></svg>