<svg xmlns="http://www.w3.org/2000/svg" viewBox="0 0 448 448"><title>whatsapp-brands-black</title><g id="Capa_2" data-name="Capa 2"><g id="Capa_1-2" data-name="Capa 1"><path d="M380.9,65.1A220.35,220.35,0,0,0,223.9,0C101.5,0,1.9,99.6,1.9,222A222.3,222.3,0,0,0,31.5,333L0,448l117.7-30.9a221.34,221.34,0,0,0,106.1,27h.1c122.3,0,224.1-99.6,224.1-222C448,162.8,422.8,107.1,380.9,65.1Zm-157,341.6a184.19,184.19,0,0,1-94-25.7l-6.7-4L53.4,395.3,72,327.2l-4.4-7A183.9,183.9,0,0,1,39.4,222C39.4,120.3,122.2,37.5,224,37.5A182.86,182.86,0,0,1,354.4,91.6c34.8,34.9,56.2,81.2,56.1,130.5C410.5,323.9,325.6,406.7,223.9,406.7ZM325.1,268.5c-5.5-2.8-32.8-16.2-37.9-18s-8.8-2.8-12.5,2.8-14.3,18-17.6,21.8-6.5,4.2-12,1.4c-32.6-16.3-54-29.1-75.5-66-5.7-9.8,5.7-9.1,16.3-30.3,1.8-3.7.9-6.9-.5-9.7s-12.5-30.1-17.1-41.2c-4.5-10.8-9.1-9.3-12.5-9.5-3.2-.2-6.9-.2-10.6-.2a20.59,20.59,0,0,0-14.8,6.9c-5.1,5.6-19.4,19-19.4,46.3s19.9,53.7,22.6,57.4,39.1,59.7,94.8,83.8c35.2,15.2,49,16.5,66.6,13.9,10.7-1.6,32.8-13.4,37.4-26.4s4.6-24.1,3.2-26.4C334.3,272.6,330.6,271.2,325.1,268.5Z"/></g></g></svg>